<svg width="291" height="283" viewBox="0 0 291 283" fill="none" xmlns="http://www.w3.org/2000/svg">
<path d="M177.358 5.13867C193.957 10.4535 208.22 17.9598 222.358 28.1387C223.251 28.778 224.145 29.4174 225.065 30.0762C257.726 54.5572 283.409 90.1028 289.952 130.871C290.641 136.418 290.698 141.93 290.67 147.514C290.665 148.702 290.661 149.89 290.656 151.114C290.543 159.525 289.926 167.083 287.358 175.139C287.018 176.265 286.677 177.392 286.327 178.553C277.443 205.625 258.27 227.585 236.358 245.139C235.565 245.799 234.772 246.459 233.956 247.139C208.271 268.336 176.418 284.292 142.358 282.139C124.116 280.347 107.342 273.837 91.3579 265.139C90.3576 264.608 89.3573 264.076 88.3267 263.529C74.9049 256.081 62.4951 246.668 51.3579 236.139C50.0915 235.05 48.8207 233.967 47.5454 232.889C23.9188 212.168 2.63685 184.856 0.15087 152.439C-0.64612 136.092 1.70852 121.538 7.3579 106.139C11.3579 106.139 11.3579 106.139 13.1821 107.396C19.3807 113.608 23.8448 120.683 28.3579 128.139C29.1091 129.364 29.8604 130.589 30.6118 131.814C34.5167 138.223 38.2649 144.71 41.9204 151.264C45.873 158.348 50.0415 165.269 54.3579 172.139C55.0867 173.339 55.8145 174.539 56.5415 175.74C65.6144 190.55 75.63 199.884 92.7681 204.084C95.3579 205.139 95.3579 205.139 96.2915 207.068C96.3579 209.139 96.3579 209.139 95.3579 212.139C94.4756 221.641 96.1623 228.731 100.983 236.889C108.562 244.069 116.306 246.623 126.569 246.549C133.645 245.783 140.478 242.621 145.358 237.326C150.771 228.7 152.88 221.487 151.358 211.139C149.895 206.558 147.696 202.328 145.358 198.139C151.571 195.192 157.947 193.538 164.608 191.889C165.696 191.608 166.784 191.327 167.905 191.037C168.946 190.777 169.988 190.516 171.061 190.248C172.006 190.011 172.951 189.773 173.925 189.528C176.358 189.139 176.358 189.139 179.358 190.139C179.296 191.417 179.234 192.696 179.17 194.014C179.214 203.201 182.205 210.373 188.358 217.139C193.844 222.481 199.813 224.304 207.295 224.514C216.642 224.208 222.589 221.8 229.409 215.326C235.065 208.978 236.727 201.871 236.561 193.529C235.805 184.632 231.522 179.332 225.358 173.139C226.828 169.806 228.754 167.471 231.17 164.764C236.021 158.837 238.222 152.418 240.358 145.139C240.628 144.243 240.628 144.243 240.904 143.329C241.487 140.518 241.509 137.856 241.535 134.984C241.548 133.739 241.561 132.493 241.574 131.21C241.582 129.851 241.589 128.493 241.596 127.135C241.6 126.446 241.604 125.757 241.609 125.048C241.629 121.398 241.644 117.748 241.653 114.097C241.664 110.354 241.698 106.612 241.738 102.869C241.765 99.9678 241.773 97.0671 241.776 94.1662C241.781 92.7881 241.793 91.41 241.811 90.032C241.995 75.639 238.078 63.0859 228.108 52.3887C215.398 40.519 201.037 39.0106 184.358 39.1387C181.951 33.4468 180.62 27.5689 179.17 21.5762C178.885 20.4399 178.599 19.3036 178.305 18.1328C178.04 17.0403 177.775 15.9479 177.502 14.8223C177.259 13.8277 177.015 12.8331 176.763 11.8083C176.364 9.1759 176.493 7.62666 177.358 5.13867Z" fill="#F66610"/>
<path d="M153.359 1.13865C154.352 3.96286 154.352 3.96286 155.234 7.82615C155.396 8.52006 155.557 9.21398 155.724 9.92893C156.081 11.4728 156.432 13.0181 156.778 14.5644C157.408 17.3545 158.066 20.137 158.727 22.9199C159.188 24.8884 159.649 26.8572 160.109 28.8261C160.332 29.77 160.555 30.7138 160.785 31.6863C160.99 32.5819 161.195 33.4776 161.406 34.4004C161.682 35.5909 161.682 35.5909 161.964 36.8054C162.385 39.2904 162.427 41.6229 162.359 44.1386C156.506 46.4608 150.707 48.1666 144.586 49.6269C142.689 50.091 140.792 50.5552 138.895 51.0195C135.956 51.7326 133.017 52.4434 130.077 53.1511C120.056 55.5703 110.098 58.058 100.301 61.2832C99.5771 61.519 98.8535 61.7549 98.1079 61.9979C86.6468 65.9019 78.1619 73.4798 72.5469 84.1386C66.976 96.2333 66.7322 108.56 71.0977 121.166C72.9925 125.63 75.3142 129.375 78.3594 133.139C79.0767 134.059 79.0767 134.059 79.8086 134.998C87.4888 143.742 99.9324 148.511 111.332 149.475C130.878 149.908 147.877 143.518 162.359 130.139C181.758 110.942 186.59 88.5132 187.359 62.1386C192.065 59.7857 198.218 60.4574 203.098 62.0097C210.224 65.3078 214.621 69.3841 217.913 76.4934C219.972 82.1066 219.79 87.6848 219.758 93.5996C219.762 95.3782 219.762 95.3782 219.767 97.1928C219.769 99.6923 219.763 102.192 219.75 104.691C219.734 108.494 219.75 112.297 219.77 116.1C219.768 118.537 219.764 120.975 219.758 123.412C219.764 124.538 219.77 125.665 219.776 126.825C219.685 137.215 218.002 146.606 210.359 154.139C202.51 160.284 193.458 162.303 183.977 164.521C182.392 164.905 180.808 165.291 179.224 165.678C175.075 166.687 170.921 167.677 166.765 168.662C162.583 169.656 158.405 170.67 154.227 171.682C149.501 172.825 144.775 173.967 140.046 175.095C139.325 175.267 138.605 175.439 137.863 175.616C136.446 175.954 135.029 176.291 133.611 176.628C130.068 177.473 126.535 178.345 123.01 179.264C122.299 179.448 121.589 179.632 120.857 179.821C118.911 180.326 116.968 180.84 115.024 181.353C105.889 183.311 97.0866 183.427 88.7031 178.916C81.3769 173.36 77.1741 166.941 72.8594 158.889C69.1696 152.111 65.3707 145.496 61.1807 139.014C59.2132 135.908 57.3453 132.756 55.4922 129.58C54.8335 128.451 54.1748 127.323 53.4961 126.16C52.1571 123.861 50.8253 121.558 49.4961 119.254C43.6743 109.307 37.3734 99.6301 29.0469 91.5761C28.2464 90.7911 27.4459 90.0061 26.6211 89.1972C24.6096 87.3664 22.5688 85.7212 20.3594 84.1386C20.9416 80.0925 23.1488 77.3265 25.6094 74.2011C26.3084 73.3133 26.3084 73.3133 27.0215 72.4074C31.9366 66.3651 37.3661 60.8403 42.8594 55.3261C43.7247 54.4555 44.5899 53.5848 45.4814 52.6877C68.1749 30.2397 95.5933 12.1487 126.359 3.13865C127.153 2.90404 127.947 2.66943 128.766 2.42771C136.014 0.561429 146.221 -1.24066 153.359 1.13865Z" fill="#F66610"/>
<path d="M165.358 68.1385C166.358 69.1385 166.358 69.1385 166.671 72.701C166.437 87.3791 160.446 102.649 150.354 113.303C139.522 123.266 127.357 129.761 112.358 129.138C105.347 128.097 99.273 125.304 94.3582 120.138C90.2638 114.46 88.5055 108.874 88.8816 101.877C90.1996 94.3037 93.7402 88.882 99.905 84.3924C107.016 80.7579 115.07 79.1067 122.78 77.2205C123.843 76.9584 124.906 76.6963 126.001 76.4263C128.233 75.8773 130.465 75.3304 132.698 74.7852C136.113 73.9497 139.527 73.104 142.94 72.2576C145.116 71.7238 147.292 71.1906 149.468 70.658C150.485 70.4049 151.503 70.1519 152.552 69.8911C153.503 69.6606 154.455 69.43 155.435 69.1924C156.684 68.8863 156.684 68.8863 157.957 68.5739C160.49 68.1146 162.789 67.9923 165.358 68.1385Z" fill="#F66610"/>
<path d="M211.359 185.139C214.755 186.869 216.78 188.207 218.797 191.451C219.556 195.078 219.319 197.555 218.359 201.139C215.811 204.69 213.676 206.373 209.422 207.139C205.339 207.393 202.727 206.567 199.359 204.139C196.955 200.726 196.359 198.757 196.359 194.576C197.546 190.499 199.122 188.823 202.359 186.139C205.469 184.584 207.922 184.852 211.359 185.139Z" fill="#F66610"/>
<path d="M127.361 207.139C130.383 208.883 132.777 210.972 134.361 214.139C135.054 218.08 135.361 221.635 133.079 225.064C130.106 227.896 127.437 229.523 123.298 229.826C118.429 228.976 116.535 227.932 113.361 224.139C112.303 221.061 112.008 218.373 112.361 215.139C115.723 208.533 119.892 205.715 127.361 207.139Z" fill="#F66610"/>
<path d="M93.358 90.1387C94.348 90.4687 95.338 90.7987 96.358 91.1387C95.698 92.2318 95.038 93.3249 94.358 94.4512C91.475 100.269 91.2642 106.167 92.983 112.408C95.3255 117.878 99.3095 121.143 104.358 124.139C105.348 124.469 106.338 124.799 107.358 125.139C107.358 125.799 107.358 126.459 107.358 127.139C101.941 126.8 98.094 123.845 94.358 120.139C90.2006 114.422 88.6058 108.873 88.9166 101.834C89.6171 97.5567 91.2715 93.9111 93.358 90.1387Z" fill="#F66610"/>
<path d="M257.359 223.139C257.359 226.139 257.359 226.139 255.559 228.303C249.425 234.313 243.111 239.824 236.359 245.139C235.699 244.479 235.039 243.819 234.359 243.139C235.266 242.365 236.172 241.592 237.105 240.795C243.916 234.974 250.698 229.13 257.359 223.139Z" fill="#F66610"/>
<path d="M188.359 77.1387C189.67 81.4429 188.817 85.0757 187.922 89.3887C187.774 90.1338 187.627 90.8788 187.475 91.6465C187.111 93.4787 186.736 95.3089 186.359 97.1387C185.699 97.1387 185.039 97.1387 184.359 97.1387C184.029 98.7887 183.699 100.439 183.359 102.139C182.239 98.777 182.503 97.6534 183.32 94.2871C183.545 93.3538 183.769 92.4205 184 91.459C184.242 90.487 184.485 89.5151 184.734 88.5137C184.969 87.534 185.204 86.5543 185.445 85.5449C187.216 78.2824 187.216 78.2824 188.359 77.1387ZM181.359 102.139C182.349 102.634 182.349 102.634 183.359 103.139C182.699 104.459 182.039 105.779 181.359 107.139C181.359 105.489 181.359 103.839 181.359 102.139Z" fill="#F66610"/>
<path d="M177.359 201.139C180.056 203.521 181.399 205.961 182.922 209.201C184.246 212.01 185.156 213.935 187.359 216.139C187.029 217.129 186.699 218.119 186.359 219.139C181.226 213.673 177.359 208.954 177.359 201.139Z" fill="#F66610"/>
<path d="M94.3594 179.139C100.959 179.139 107.559 179.139 114.359 179.139C114.359 179.799 114.359 180.459 114.359 181.139C110.782 182.331 107.518 182.285 103.797 182.264C103.112 182.268 102.427 182.271 101.721 182.275C96.6128 182.265 96.6128 182.265 94.3594 181.139C94.3594 180.479 94.3594 179.819 94.3594 179.139Z" fill="#F66610"/>
<path d="M205.359 65.1387C208.135 65.2203 209.881 65.7248 211.992 67.5527C215.354 71.2392 217.108 73.9922 217.359 79.1387C216.803 78.4374 216.246 77.7362 215.672 77.0137C210.78 70.8399 210.78 70.8399 205.359 65.1387Z" fill="#F66610"/>
<path d="M177.358 190.139C178.018 190.139 178.678 190.139 179.358 190.139C179.028 193.109 178.698 196.079 178.358 199.139C177.698 199.139 177.038 199.139 176.358 199.139C176.261 192.986 176.261 192.986 176.358 191.139C176.688 190.809 177.018 190.479 177.358 190.139Z" fill="#F66610"/>
<path d="M233.359 57.1387C239.359 63.1387 239.359 63.1387 239.422 65.7012C239.401 66.5055 239.381 67.3099 239.359 68.1387C233.359 60.4244 233.359 60.4244 233.359 57.1387Z" fill="#F66610"/>
</svg>
